<svg width="50" height="50" viewBox="0 0 50 50" fill="none" xmlns="http://www.w3.org/2000/svg">
<path d="M25 3.125C20.4433 3.13038 16.0747 4.94292 12.8526 8.16504C9.63044 11.3872 7.81789 15.7557 7.81252 20.3125C7.80706 24.0363 9.02343 27.659 11.275 30.625C11.275 30.625 11.7438 31.2422 11.8203 31.3313L25 46.875L38.186 31.3234C38.2547 31.2406 38.725 30.625 38.725 30.625L38.7266 30.6203C40.9771 27.6556 42.1929 24.0346 42.1875 20.3125C42.1821 15.7557 40.3696 11.3872 37.1475 8.16504C33.9254 4.94292 29.5568 3.13038 25 3.125V3.125ZM31.5781 21.4094L25.0047 28.125L18.4219 21.4094C17.6315 20.5933 17.1895 19.5017 17.1895 18.3656C17.1895 17.2295 17.6315 16.138 18.4219 15.3219C18.8095 14.9235 19.273 14.6068 19.7851 14.3906C20.2971 14.1743 20.8473 14.0629 21.4031 14.0629C21.959 14.0629 22.5092 14.1743 23.0212 14.3906C23.5333 14.6068 23.9968 14.9235 24.3844 15.3219L25.0047 15.9547L25.6188 15.3219C26.0064 14.9235 26.4699 14.6068 26.9819 14.3906C27.494 14.1743 28.0442 14.0629 28.6 14.0629C29.1559 14.0629 29.706 14.1743 30.2181 14.3906C30.7302 14.6068 31.1937 14.9235 31.5813 15.3219C32.3717 16.138 32.8136 17.2295 32.8136 18.3656C32.8136 19.5017 32.3717 20.5933 31.5813 21.4094H31.5781Z" fill="#262328"/>
</svg>
