<svg width="100" height="39" viewBox="0 0 100 39" fill="none" xmlns="http://www.w3.org/2000/svg">
<g clip-path="url(#clip0)">
<path d="M51.6281 13.1921L56.3857 12.8826C56.4942 13.6654 56.6932 14.248 57.0188 14.6667C57.5434 15.322 58.267 15.6497 59.2258 15.6497C59.9313 15.6497 60.492 15.4859 60.8719 15.14C61.2337 14.8669 61.4508 14.43 61.4508 13.9749C61.4508 13.538 61.2518 13.1193 60.9081 12.8462C60.5463 12.5186 59.6961 12.1909 58.3575 11.8996C56.1686 11.4081 54.5948 10.7527 53.6722 9.91532C52.7496 9.13253 52.225 7.98565 52.2612 6.76595C52.2612 5.92854 52.5145 5.09114 52.9848 4.39937C53.5275 3.61658 54.2692 2.99763 55.1556 2.65174C56.1143 2.23304 57.453 2.01459 59.1353 2.01459C61.1975 2.01459 62.7714 2.39688 63.8567 3.17967C64.9421 3.94426 65.5934 5.18216 65.7923 6.87518L61.089 7.14824C60.9624 6.42006 60.7091 5.89214 60.2931 5.54625C59.877 5.20037 59.3343 5.03653 58.6288 5.03653C58.0499 5.03653 57.6158 5.16396 57.3263 5.40062C57.055 5.61907 56.8741 5.94675 56.8922 6.31084C56.8922 6.58391 57.0369 6.83877 57.254 7.00261C57.4892 7.22106 58.0499 7.42131 58.9363 7.60335C61.1252 8.07667 62.6809 8.54999 63.6397 9.04151C64.5984 9.53303 65.2858 10.1338 65.7019 10.8437C66.136 11.5719 66.3531 12.4093 66.335 13.2649C66.335 14.2844 66.0456 15.3038 65.4667 16.1594C64.8698 17.0515 64.0376 17.7432 63.0608 18.1619C62.0297 18.6171 60.7272 18.8537 59.1715 18.8537C56.4219 18.8537 54.5224 18.3258 53.4551 17.2517C52.3878 16.1777 51.7547 14.8305 51.6281 13.1921ZM1.13965 18.5806V2.30586H9.47902C11.0166 2.30586 12.2106 2.43329 13.0246 2.70636C13.8206 2.96122 14.5261 3.48915 14.9964 4.19912C15.521 4.98191 15.7742 5.89214 15.7562 6.83877C15.8104 8.44076 14.9964 9.96993 13.6035 10.7709C13.0608 11.0804 12.4638 11.2989 11.8488 11.4081C12.301 11.5355 12.7533 11.754 13.1512 12.0088C13.4588 12.2637 13.712 12.555 13.9472 12.8644C14.2185 13.1739 14.4537 13.5198 14.6527 13.8839L17.0767 18.5988H11.3965L8.71925 13.5926C8.37554 12.9555 8.08611 12.5368 7.81476 12.3365C7.45297 12.0817 7.01881 11.9542 6.58466 11.9542H6.15051V18.5624H1.13965V18.5806ZM6.15051 8.89587H8.267C8.71925 8.85946 9.1534 8.78664 9.58755 8.67742C9.91317 8.6228 10.2026 8.44076 10.4016 8.16769C10.89 7.51233 10.8177 6.58391 10.2207 6.01957C9.89508 5.7465 9.26194 5.60086 8.35745 5.60086H6.15051V8.89587ZM0 32.5252L4.7576 32.2158C4.86614 32.9986 5.06512 33.5811 5.39074 33.9998C5.89725 34.6552 6.63893 35.0011 7.59769 35.0011C8.30318 35.0011 8.86397 34.8372 9.24385 34.4913C9.60564 34.2001 9.82272 33.7814 9.82272 33.3262C9.82272 32.8893 9.62373 32.4706 9.28003 32.1976C8.91823 31.8699 8.06802 31.5422 6.71129 31.2509C4.52243 30.7594 2.94863 30.1041 2.02605 29.2667C1.10347 28.4839 0.578871 27.337 0.615051 26.1173C0.615051 25.2799 0.868307 24.4425 1.33864 23.7507C1.88133 22.9679 2.62301 22.349 3.50941 22.0031C4.46816 21.5844 5.8068 21.3659 7.48915 21.3659C9.55138 21.3659 11.1252 21.7482 12.2106 22.531C13.2959 23.3138 13.9291 24.5335 14.1281 26.2265L9.42475 26.4996C9.29812 25.7714 9.04486 25.2435 8.6288 24.8976C8.23083 24.5517 7.67004 24.3879 6.96454 24.4061C6.38567 24.4061 5.95152 24.5335 5.66208 24.7884C5.37265 25.0068 5.20984 25.3345 5.22793 25.6986C5.22793 25.9716 5.37265 26.2265 5.58973 26.3904C5.82489 26.6088 6.38567 26.8091 7.27207 26.9911C9.46093 27.4644 11.0166 27.9377 11.9754 28.4292C12.9342 28.9208 13.6216 29.5215 14.0376 30.2315C14.4718 30.9597 14.6889 31.7971 14.6889 32.6345C14.6889 33.6539 14.3813 34.6552 13.8206 35.5108C13.2236 36.4028 12.3915 37.0946 11.4146 37.5133C10.3835 37.9684 9.08104 38.205 7.52533 38.205C4.77569 38.205 2.87627 37.6771 1.80897 36.6031C0.741679 35.5108 0.144718 34.1637 0 32.5252H0Z" fill="#262328"/>
<path d="M24.0593 31.2509L28.437 32.5798C28.2019 33.6903 27.7134 34.7462 27.0441 35.6746C26.4291 36.4938 25.615 37.1309 24.6925 37.5497C23.7518 37.9684 22.5579 38.1868 21.1107 38.1868C19.356 38.1868 17.9088 37.9319 16.8053 37.4222C15.6838 36.9125 14.725 36.0023 13.911 34.7098C13.0969 33.4172 12.699 31.7606 12.699 29.7399C12.699 27.0457 13.4045 24.9704 14.8336 23.5322C16.2627 22.0941 18.2706 21.3659 20.8755 21.3659C22.9197 21.3659 24.5116 21.7846 25.6874 22.6038C26.8451 23.4412 27.7134 24.7155 28.2923 26.4267L23.8784 27.4098C23.7699 27.0275 23.6071 26.6452 23.39 26.3175C23.1187 25.9352 22.7749 25.6439 22.3589 25.4255C21.9428 25.207 21.4725 25.116 21.0022 25.116C19.8625 25.116 18.9942 25.5711 18.3972 26.4996C17.945 27.1731 17.7098 28.2472 17.7098 29.7035C17.7098 31.5058 17.9812 32.7437 18.5239 33.4172C19.0666 34.0908 19.8263 34.4185 20.8213 34.4185C21.78 34.4185 22.5036 34.1454 22.992 33.6175C23.4804 33.0532 23.8422 32.2704 24.0593 31.2509ZM34.28 21.639H39.2728V27.337H44.7359V21.639H49.7648V37.9137H44.7359V31.3237H39.2728V37.9137H34.28V21.639Z" fill="#262328"/>
<path d="M49.0774 29.7764C49.0774 27.1185 49.8191 25.0432 51.2843 23.5687C52.7496 22.0941 54.8118 21.3477 57.4348 21.3477C60.1302 21.3477 62.1924 22.0759 63.6577 23.5323C65.123 24.9886 65.8466 27.0275 65.8466 29.6489C65.8466 31.5604 65.521 33.1078 64.8878 34.3275C64.2728 35.529 63.314 36.512 62.1382 37.1674C60.9262 37.8409 59.4247 38.1868 57.6338 38.1868C55.8068 38.1868 54.3053 37.8956 53.1114 37.313C51.8813 36.6941 50.8683 35.7292 50.199 34.5459C49.4573 33.2716 49.0774 31.6878 49.0774 29.7764ZM54.0702 29.7946C54.0702 31.433 54.3777 32.6163 54.9746 33.3444C55.5716 34.0544 56.4037 34.4185 57.4529 34.4185C58.5202 34.4185 59.3524 34.0726 59.9493 33.3627C60.5463 32.6527 60.8357 31.3966 60.8357 29.5761C60.8357 28.047 60.5282 26.9183 59.9131 26.2265C59.2981 25.5165 58.466 25.1707 57.4168 25.1707C56.4942 25.1342 55.6078 25.5347 54.9927 26.2447C54.3777 26.9547 54.0702 28.138 54.0702 29.7946ZM70.966 29.7764C70.966 27.1185 71.7076 25.0432 73.1729 23.5687C74.6382 22.0941 76.7004 21.3477 79.3234 21.3477C82.0188 21.3477 84.0991 22.0759 85.5463 23.5323C86.9935 24.9886 87.7351 27.0275 87.7351 29.6489C87.7351 31.5604 87.4095 33.1078 86.7764 34.3275C86.1613 35.529 85.2026 36.512 84.0268 37.1674C82.8147 37.8409 81.3133 38.1868 79.5224 38.1868C77.6953 38.1868 76.1939 37.8956 75 37.313C73.7699 36.6941 72.7569 35.7292 72.0875 34.5459C71.3459 33.2716 70.966 31.6878 70.966 29.7764ZM75.9587 29.7946C75.9587 31.433 76.2663 32.6163 76.8632 33.3444C77.4602 34.0544 78.2923 34.4185 79.3415 34.4185C80.4088 34.4185 81.2409 34.0726 81.8379 33.3627C82.4349 32.6527 82.7243 31.3966 82.7243 29.5761C82.7243 28.047 82.4168 26.9183 81.8017 26.2265C81.1867 25.5165 80.3545 25.1707 79.3053 25.1707C78.3828 25.1342 77.4783 25.5347 76.8813 26.2447C76.2663 26.9547 75.9587 28.138 75.9587 29.7946Z" fill="#262328"/>
<path d="M87.2106 21.639H92.2034V33.9088H100V37.9138H87.1925V21.639H87.2106Z" fill="#262328"/>
<path d="M81.7074 20.6998C86.7341 16.8877 88.2841 10.4258 85.1695 6.26654C82.055 2.10731 75.4552 1.82583 70.4286 5.63784C65.4019 9.44985 63.8519 15.9118 66.9664 20.0711C70.081 24.2303 76.6808 24.5118 81.7074 20.6998Z" fill="#EFF2F3" stroke="#262328" stroke-miterlimit="10"/>
<path d="M70.9841 11.9724L72.793 10.6981L75.0181 13.8839C75.398 14.3936 75.6874 14.9398 75.9045 15.5405C76.0311 15.9956 75.9949 16.4871 75.814 16.9241C75.5789 17.4702 75.199 17.9253 74.6925 18.253C74.0955 18.6717 73.589 18.9083 73.1548 18.9812C72.7388 19.054 72.3046 18.9812 71.9066 18.7991C71.4725 18.5807 71.0926 18.2712 70.8032 17.8707L72.3589 16.4143C72.4855 16.6146 72.6483 16.7966 72.8292 16.9423C72.9558 17.0333 73.1006 17.0879 73.2634 17.0879C73.39 17.0879 73.5166 17.0333 73.6071 16.9605C73.788 16.8512 73.9146 16.6328 73.8965 16.4143C73.8422 16.1049 73.7156 15.7954 73.5166 15.5587L70.9841 11.9724ZM76.411 13.9931L78.0571 12.6824C78.238 12.9009 78.4732 13.0647 78.7265 13.1557C79.0883 13.265 79.4681 13.1921 79.7757 12.9555C79.9927 12.8098 80.1736 12.6096 80.246 12.3547C80.3545 12.0271 80.1736 11.663 79.848 11.5537C79.7938 11.5355 79.7395 11.5173 79.6852 11.5173C79.4681 11.4991 79.0883 11.5902 78.5275 11.8268C77.6049 12.2091 76.8813 12.3547 76.3386 12.3001C75.814 12.2455 75.3256 11.9724 75.0362 11.5173C74.8191 11.2079 74.7105 10.8438 74.6925 10.4797C74.6925 10.061 74.801 9.64227 75.0362 9.29639C75.3799 8.80487 75.7959 8.38617 76.3024 8.05849C77.0622 7.53056 77.7315 7.2757 78.3104 7.2757C78.8893 7.2757 79.432 7.54876 79.9385 8.1131L78.3104 9.40562C77.9848 8.98691 77.3697 8.89589 76.9537 9.22357L76.8994 9.27819C76.7185 9.38741 76.5919 9.55125 76.5195 9.7515C76.4652 9.89714 76.5014 10.061 76.5919 10.1884C76.6642 10.2794 76.7728 10.3522 76.8994 10.3522C77.0441 10.3705 77.2974 10.2976 77.6592 10.1338C78.5637 9.7515 79.2511 9.53305 79.7214 9.46023C80.1194 9.38741 80.5354 9.42382 80.9153 9.58766C81.259 9.7333 81.5485 9.98816 81.7474 10.2976C82.0007 10.6617 82.1454 11.0986 82.1635 11.5537C82.1816 12.0271 82.055 12.4822 81.8017 12.8827C81.4761 13.3742 81.06 13.7929 80.5716 14.1206C79.5767 14.8123 78.7626 15.1036 78.1114 14.9944C77.4059 14.8852 76.827 14.5211 76.411 13.9931Z" fill="#262328"/>
</g>
<defs>
<clipPath id="clip0">
<rect width="100" height="37.3737" fill="white" transform="translate(0 0.81311)"/>
</clipPath>
</defs>
</svg>
