<svg version="1" xmlns="http://www.w3.org/2000/svg" width="346.667" height="346.667" viewBox="0 0 260.000000 260.000000"><path d="M221.4 53c-7.8 3.2-15.4 26-15.4 46.1v7.8l-4.2 2.5c-5.7 3.3-8.8 3.9-12.3 2.6l-3-1.1 6-2.9c6.8-3.2 9.5-6.8 9.5-12.5 0-4.7-4.4-9.5-8.9-9.5-6.3 0-12.7 4.3-15.1 10.1-.9 2-2 2.9-3.5 2.9-2.2 0-2.3-.2-1.4-3.5 2.3-8.2-4.3-12.4-10.2-6.6-2.7 2.8-3 3.7-2.8 7.9.3 3.6-.2 5.7-2.1 9.1l-2.5 4.4-1-11.9-1-11.9-2.8-.3c-4.8-.6-5.7 1.1-5.7 10.8 0 8.3-.2 9-2.9 11.9-5.7 6-6.8 3.8-4.6-9 1.6-8.9 1.6-9.4-.2-10.7-1-.7-2.6-1.1-3.5-.9-.9.3-1.9-.2-2.3-1-.4-1.2-1.5-1.4-4.6-1-5.5.7-11.3 4.8-14.4 10.2-1.5 2.5-3.4 4.5-4.2 4.5-1.3 0-1.5-.9-.9-5.5.8-6.8-.4-9.5-4.2-9.5-3.8 0-8.6 3.2-12.3 8.2l-3.1 4.3.7-4c1.4-6.9 1.2-8-1.3-8.3-4.1-.6-6.7 2.1-8.1 8.3-1.9 8.4-1.7 20.9.3 24 3.2 4.9 7.2 2.5 9.5-5.5 1.5-5.2 5.6-13.6 7.1-14.5.6-.4 1 .6 1 2.5 0 3.3 1.5 7 3.4 8.2.6.4 2.8.8 4.8.8 3.3 0 3.8.4 4.8 3.4 2.3 7.1 9 9.5 15.1 5.3l3.5-2.4 2.9 2.4c3.4 3 7.1 2.6 12.1-1.2 3-2.3 3.2-2.4 3.7-.5.3 1.1 1.6 2.5 3.1 3.1 4 1.8 8.1-.5 12.9-7.2 4-5.7 4.2-5.9 8.4-5.6 3.7.2 4.3.5 4.8 2.9 1.3 5.7 8.8 10.8 16.1 10.8 3 0 10.1-2.6 13.2-4.8 2.5-1.9 2.5-1.9 5.2 1.1 2.3 2.6 3.4 3.1 7.8 3.1 6.7.1 10.6-2.6 11-7.7.4-4.2-1.2-4.8-5.3-2.1-3 2-7.1 1.2-8-1.5-.3-1.2.7-3.7 3.1-7.2 5-7.5 7.9-13.5 11-22.5 6-17.9 1.4-30.9-9.2-26.4zm4.2 9.5c1.3 5.1-4.4 24.8-9 31-2.9 4 1.4-21.4 5.1-29.8 1.9-4.3 3-4.7 3.9-1.2zm-96.9 33.7c-.3 1.3-1 4.8-1.7 7.9-1.3 6.6-4.1 9.9-6.5 7.9-3-2.5-1.4-10.4 3.3-15.3 3.2-3.4 5.6-3.6 4.9-.5zm64.9-.7c.9 2.2-2 6.1-5.4 7.3l-2.9 1 .7-3.4c.5-1.9 1.4-4.1 2-4.9 1.6-1.9 4.9-1.9 5.6 0zM48 59.7c-5.4.9-12.2 3.6-15 6-3.8 3.2-5.5 9.2-4 13.9 2.1 6.4 5.4 8 9 4.4 1.6-1.6 1.8-2.5 1-4-1.5-2.9-1.2-6.5.8-8.3 1-.9 4.2-2.1 7.2-2.7 8.1-1.5 8.3-1.5 7.6 2.2-.7 3.6-6.1 36-7 42.1-.4 2.9 0 4.3 1.5 5.8 3.8 3.8 9.9 1.1 9.9-4.4 0-3.2 3.9-28.6 6.2-40.6l1.2-6.3 11.1.7c9.7.6 11.4.5 12.8-1 3.1-3.1 1.8-6-3.4-7.5-3.2-1-33.7-1.2-38.9-.3zM96.3 126.5c-9.5 2.9-17.9 9.9-22.3 18.5-5.5 10.9-6.4 25-1.9 32.9 5.9 10.5 20.1 11.8 27.8 2.4l2.9-3.5 1 3c1.3 3.8 4.9 6.2 10 6.9l3.9.5-1.9 6.2c-1.1 3.3-2.2 9-2.4 12.6-.5 5.4-.2 7.1 1.5 9.8 1.8 2.7 2.7 3.2 5.9 3.2 7.2 0 11.2-6.9 13.4-23l1.2-8.7 4-1.4c3.4-1.2 4.5-1.2 6.6-.2 1.4.7 3.5 1.3 4.7 1.3h2.1l-2 5.2c-1.1 3-2.2 8.9-2.5 13.3-.5 7.2-.3 8.3 1.7 10.7 1.6 2.1 3 2.8 5.6 2.8 7 0 11.2-7.4 13.6-24l1-7.6 5.8-2.7c9.3-4.3 14.4-14.3 12.5-24.3-1.4-7.6-9.1-10.9-14.8-6.4l-2.6 2-.6-2c-.5-1.5-1.5-2-3.9-2-4.9 0-5.6 1.4-5.6 11 0 8.4-.1 8.7-3.3 11.8-1.8 1.8-4.3 3.2-5.4 3.2-2.1 0-2.1-.1-.5-3.3 1.1-2.1 1.7-5.6 1.7-10.5 0-6.9-.2-7.5-2.9-9.9-2.4-2-3.7-2.4-6.9-2-2.1.3-4.7 1.3-5.7 2.2-1.6 1.5-1.8 1.4-2.3-.5-.4-1.4-1.3-2-3.5-2-5.1 0-6.2 2.1-6.2 11.4 0 7.8-.2 8.4-2.9 11-3.9 3.7-8.1 3.3-9.3-.9-.8-3.3.3-12.3 3.1-24.9 1.2-5.4 1.5-8.9.9-10-.9-1.7-6.3-2.2-8.4-.8-.7.4-2.3 5.4-3.7 11.2-5.1 21.1-9.1 28-16.4 28-7.1 0-10-6.4-8.2-17.9 1.8-11.3 7.4-19.3 16.1-23.1 4.8-2.1 6.3-2.2 15.7-1.6 11.5.7 13.1.1 13.1-4.5 0-2.4-.5-3-3.7-3.8-5.2-1.5-20.9-1.2-26 .4zM144 162c1.6 3-.7 10.5-4.4 14.3l-3.1 3.2-.3-7.4c-.3-6.5 0-7.7 1.9-9.7 2.7-2.9 4.5-3 5.9-.4zm34.8 1.5c.6 4.5-1.4 9.7-4.8 13l-3 2.9V172c0-6.2.3-7.7 2.2-9.7 2.9-3.1 5.2-2.6 5.6 1.2zm-18.9 32.3c-1 10.6-2.1 15.2-3.9 15.2-1.8 0-1.1-8.4 1.6-17.3 1.5-4.8 2.8-8.6 3-8.4.2.1-.1 4.8-.7 10.5zm-34.3-2.6c-1 10.9-2.6 18-3.9 17.5-1.8-.6-1.1-9.3 1.4-17.5 1.2-3.9 2.5-7.2 2.7-7.2.3 0 .2 3.3-.2 7.2z"/></svg>