<svg width="280" height="150" viewBox="0 0 280 150" fill="none" xmlns="http://www.w3.org/2000/svg">
<g clip-path="url(#clip0)">
<path d="M-2 36.4337C-28.8 13.2337 -35.8333 14.4337 -36 17.9337V157.434H170C163.833 153.434 144 141.134 114 123.934C76.5 102.434 58.5 117.5 41 100C23.5 82.5 31.5 65.4337 -2 36.4337Z" fill="white" fill-opacity="0.29"/>
<path d="M5.5 71.5C-10.1 55.9 -32.6667 50.6667 -42 50C-42 50 -42 158 -35 162.5C-28 167 25 169 25 169C50.1667 169 108.586 160.388 72.5 148C5.5 125 25 91 5.5 71.5Z" fill="white" fill-opacity="0.29"/>
</g>
<defs>
<clipPath id="clip0">
<rect width="280" height="150" rx="25" fill="white"/>
</clipPath>
</defs>
</svg>
