<svg version="1.1" id="Layer_1" xmlns="http://www.w3.org/2000/svg" xmlns:xlink="http://www.w3.org/1999/xlink" x="0px" y="0px" viewBox="0 0 61.7 42.8" style="enable-background:new 0 0 61.7 42.8;" xml:space="preserve">
  <g id="Cloud_3">
    <g id="White_cloud_3">
      <path id="XMLID_24_" d="M47.2,42.8H7.9c-4.3,0-7.9-3.5-7.9-7.9l0,0C0,30.5,3.5,27,7.9,27h39.4c4.3,0,7.9,3.5,7.9,7.9 v0C55.1,39.2,51.6,42.8,47.2,42.8z" fill="#FFFFFF"/>
      <circle id="XMLID_23_" cx="17.4" cy="25.5" r="9.3" fill="#FFFFFF"/>
      <circle id="XMLID_22_" cx="34.5" cy="23.9" r="15.6" fill="#FFFFFF"/>
      <animateTransform attributeName="transform"
        attributeType="XML"
        dur="6s"
        keyTimes="0;0.5;1"
        repeatCount="indefinite"
        type="translate"
        values="0;5;0"
        calcMode="linear">
      </animateTransform>
    </g>
    <g id="Sun_3">
      <circle id="XMLID_30_" cx="31.4" cy="18.5" r="9" fill="#FFEB3B"/>
      <g>
        <path id="XMLID_31_" d="M31.4,6.6L31.4,6.6c-0.4,0-0.6-0.3-0.6-0.6V0.6C30.8,0.3,31,0,31.3,0l0.1,0 C31.7,0,32,0.3,32,0.6v5.5C32,6.4,31.7,6.6,31.4,6.6z" fill="#FFEB3B"/>
        <path id="XMLID_34_" d="M31.4,30.1L31.4,30.1c-0.4,0-0.6,0.3-0.6,0.6v5.5c0,0.3,0.3,0.6,0.6,0.6h0.1 c0.3,0,0.6-0.3,0.6-0.6v-5.5C32,30.4,31.7,30.1,31.4,30.1z" fill="#FFEB3B"/>
        <path id="XMLID_35_" d="M19.6,18.3L19.6,18.3c0,0.4-0.3,0.6-0.6,0.6h-5.5c-0.3,0-0.6-0.3-0.6-0.6v-0.1 c0-0.3,0.3-0.6,0.6-0.6H19C19.3,17.8,19.6,18,19.6,18.3z" fill="#FFEB3B"/>
        <path id="XMLID_33_" d="M43.1,18.3L43.1,18.3c0,0.4,0.3,0.6,0.6,0.6h5.5c0.3,0,0.6-0.3,0.6-0.6v-0.1 c0-0.3-0.3-0.6-0.6-0.6h-5.5C43.4,17.8,43.1,18,43.1,18.3z" fill="#FFEB3B"/>
        <path id="XMLID_37_" d="M22.4,26L22.4,26c0.3,0.3,0.2,0.7,0,0.9l-4.2,3.6c-0.2,0.2-0.6,0.2-0.8-0.1l-0.1-0.1 c-0.2-0.2-0.2-0.6,0.1-0.8l4.2-3.6C21.9,25.8,22.2,25.8,22.4,26z" fill="#FFEB3B"/>
        <path id="XMLID_36_" d="M40.3,10.7L40.3,10.7c0.3,0.3,0.6,0.3,0.8,0.1l4.2-3.6c0.2-0.2,0.3-0.6,0.1-0.8l-0.1-0.1 c-0.2-0.2-0.6-0.3-0.8-0.1l-4.2,3.6C40.1,10.1,40,10.5,40.3,10.7z" fill="#FFEB3B"/>
        <path id="XMLID_39_" d="M22.4,10.8L22.4,10.8c0.3-0.3,0.2-0.7,0-0.9l-4.2-3.6c-0.2-0.2-0.6-0.2-0.8,0.1l-0.1,0.1 c-0.2,0.2-0.2,0.6,0.1,0.8l4.2,3.6C21.9,11,22.2,11,22.4,10.8z" fill="#FFEB3B"/>
        <path id="XMLID_38_" d="M40.3,26.1L40.3,26.1c0.3-0.3,0.6-0.3,0.8-0.1l4.2,3.6c0.2,0.2,0.3,0.6,0.1,0.8l-0.1,0.1 c-0.2,0.2-0.6,0.3-0.8,0.1l-4.2-3.6C40.1,26.7,40,26.3,40.3,26.1z" fill="#FFEB3B"/>
        <animate attributeType="CSS"
          attributeName="opacity"
          dur="1s"
          keyTimes="0;0.5;1"
          repeatCount="indefinite"
          values="1;0.6;1"
          calcMode="linear"/>
      </g>
    </g>
    <animateTransform attributeName="transform"
      attributeType="XML"
      dur="2s"
      keyTimes="0;1"
      repeatCount="indefinite"
      type="scale"
      values="1;1"
      calcMode="linear">
    </animateTransform>
   </g>
   <g id="Gray_cloud_3">
    <path id="XMLID_20_" d="M55.7,25.1H34.4c-3.3,0-6-2.7-6-6v0c0-3.3,2.7-6,6-6h21.3c3.3,0,6,2.7,6,6v0 C61.7,22.4,59,25.1,55.7,25.1z" fill="#E0E0E0"/>
    <circle id="XMLID_19_" cx="46.7" cy="13.4" r="10.7" fill="#E0E0E0"/>
    <animateTransform attributeName="transform"
      attributeType="XML"
      dur="6s"
      keyTimes="0;0.5;1"
      repeatCount="indefinite"
      type="translate"
      values="0;-3;0"
      calcMode="linear">
    </animateTransform>
   </g>
</svg>