<svg id="edrvu8hpr40e1" xmlns="http://www.w3.org/2000/svg" xmlns:xlink="http://www.w3.org/1999/xlink" viewBox="0 0 50 50" shape-rendering="geometricPrecision" text-rendering="geometricPrecision"><style><![CDATA[#edrvu8hpr40e3_to {animation: edrvu8hpr40e3_to__to 3000ms linear infinite normal forwards}@keyframes edrvu8hpr40e3_to__to { 0% {transform: translate(25.314949px,36.785601px);animation-timing-function: cubic-bezier(0.420000,0,0.580000,1)} 50% {transform: translate(27.314949px,36.785601px);animation-timing-function: cubic-bezier(0.420000,0,0.580000,1)} 100% {transform: translate(25.314949px,36.785601px)} }#edrvu8hpr40e4_to {animation: edrvu8hpr40e4_to__to 3000ms linear infinite normal forwards}@keyframes edrvu8hpr40e4_to__to { 0% {transform: translate(27.314949px,41.785601px);animation-timing-function: cubic-bezier(0.420000,0,0.580000,1)} 50% {transform: translate(25.314949px,41.785601px);animation-timing-function: cubic-bezier(0.420000,0,0.580000,1)} 100% {transform: translate(27.314949px,41.785601px)} }#edrvu8hpr40e5_to {animation: edrvu8hpr40e5_to__to 3000ms linear infinite normal forwards}@keyframes edrvu8hpr40e5_to__to { 0% {transform: translate(25.314949px,46.785601px);animation-timing-function: cubic-bezier(0.420000,0,0.580000,1)} 50% {transform: translate(27.314949px,46.785601px);animation-timing-function: cubic-bezier(0.420000,0,0.580000,1)} 100% {transform: translate(25.314949px,46.785601px)} }]]></style><path id="edrvu8hpr40e2" d="M41.532600,16.384400C40.896600,12.646000,39.251400,9.242780,36.837700,6.672480C34.424000,4.102170,31.368300,2.499560,28.117500,2.098950C24.866700,1.698340,21.591200,2.520760,18.770000,4.445950C15.948700,6.371130,13.729700,9.298120,12.437300,12.798900C6.370210,12.798900,0,16.384400,0,23C0,29.365500,4.971210,33.703900,11.193800,33.715200C17.416300,33.726500,40.292100,33.715200,40.292100,33.715200C45.540200,33.722200,49.690600,31.004700,49.981600,26C50.274800,20.958400,47.041500,16.384400,41.532600,16.384400Z" fill="rgb(255,255,255)" stroke="none" stroke-width="1"/><g id="edrvu8hpr40e3_to" transform="translate(25.314949,36.785601)"><path id="edrvu8hpr40e3" d="M10.448600,35.523000C10.161400,35.857900,10,36.312000,10,36.785600C10,37.259200,10.161400,37.713300,10.448600,38.048200C10.735800,38.383100,11.125300,38.571200,11.531500,38.571200L39.098400,38.571200C39.504500,38.571200,39.894100,38.383100,40.181300,38.048200C40.468500,37.713300,40.629900,37.259200,40.629900,36.785600C40.629900,36.312000,40.468500,35.857900,40.181300,35.523000C39.894100,35.188100,39.504500,35,39.098400,35L11.531500,35C11.125300,35,10.735800,35.188100,10.448600,35.523000Z" transform="translate(-25.314949,-36.785601)" fill="rgb(255,255,255)" stroke="none" stroke-width="1"/></g><g id="edrvu8hpr40e4_to" transform="translate(27.314949,41.785601)"><path id="edrvu8hpr40e4" d="M12.448600,40.523000C12.161400,40.857900,12,41.312000,12,41.785600C12,42.259200,12.161400,42.713300,12.448600,43.048200C12.735800,43.383100,13.125300,43.571200,13.531500,43.571200L41.098400,43.571200C41.504500,43.571200,41.894100,43.383100,42.181300,43.048200C42.468500,42.713300,42.629900,42.259200,42.629900,41.785600C42.629900,41.312000,42.468500,40.857900,42.181300,40.523000C41.894100,40.188100,41.504500,40,41.098400,40L13.531500,40C13.125300,40,12.735800,40.188100,12.448600,40.523000Z" transform="translate(-27.314949,-41.785601)" fill="rgb(255,255,255)" stroke="none" stroke-width="1"/></g><g id="edrvu8hpr40e5_to" transform="translate(25.314949,46.785601)"><path id="edrvu8hpr40e5" d="M10.448600,45.523000C10.161400,45.857900,10,46.312000,10,46.785600C10,47.259200,10.161400,47.713300,10.448600,48.048200C10.735800,48.383100,11.125300,48.571200,11.531500,48.571200L39.098400,48.571200C39.504500,48.571200,39.894100,48.383100,40.181300,48.048200C40.468500,47.713300,40.629900,47.259200,40.629900,46.785600C40.629900,46.312000,40.468500,45.857900,40.181300,45.523000C39.894100,45.188100,39.504500,45,39.098400,45L11.531500,45C11.125300,45,10.735800,45.188100,10.448600,45.523000Z" transform="translate(-25.314949,-46.785601)" fill="rgb(255,255,255)" stroke="none" stroke-width="1"/></g></svg>